<svg xmlns="http://www.w3.org/2000/svg" viewBox="0 0 1200 900" role="img" aria-labelledby="title desc">
  <title id="title">Pool illustration</title>
  <desc id="desc">Abstract pool deck with sun loungers, water, and green hills.</desc>
  <rect width="1200" height="900" fill="#eef5f2"/>
  <rect x="0" y="0" width="1200" height="320" fill="#dbe8e1"/>
  <circle cx="970" cy="170" r="84" fill="#f0bc60"/>
  <path d="M0 350 C240 280 470 290 660 350 C860 410 1020 400 1200 340 L1200 900 L0 900 Z" fill="#88a78a"/>
  <rect x="150" y="470" width="900" height="280" rx="40" fill="#9bd4db"/>
  <rect x="180" y="500" width="840" height="220" rx="34" fill="#67c0cf"/>
  <path d="M220 580 C330 550 450 550 560 580 C680 610 790 610 900 580" fill="none" stroke="#c8eff4" stroke-width="14" stroke-linecap="round"/>
  <rect x="150" y="745" width="900" height="70" fill="#e8d9b6"/>
  <rect x="900" y="420" width="140" height="36" rx="12" fill="#fffdfa"/>
  <rect x="915" y="455" width="16" height="110" fill="#7d5a43"/>
  <rect x="1008" y="455" width="16" height="110" fill="#7d5a43"/>
  <text x="74" y="848" fill="#20372a" font-size="52" font-family="Palatino Linotype, Georgia, serif">Poolside moments</text>
</svg>
