<svg xmlns="http://www.w3.org/2000/svg" viewBox="0 0 1200 900" role="img" aria-labelledby="title desc">
  <title id="title">Garden sunrise illustration</title>
  <desc id="desc">Abstract garden scene with sunrise, trees, and an outdoor breakfast table.</desc>
  <rect width="1200" height="900" fill="#f8f1e6"/>
  <circle cx="920" cy="190" r="90" fill="#f0bc60" opacity="0.85"/>
  <path d="M0 470 C200 400 390 410 590 470 C790 530 1000 540 1200 470 L1200 900 L0 900 Z" fill="#b8c7a8"/>
  <path d="M0 560 C230 490 430 500 640 570 C850 640 1030 630 1200 560 L1200 900 L0 900 Z" fill="#4e6f58"/>
  <circle cx="250" cy="350" r="110" fill="#4e6f58"/>
  <rect x="225" y="430" width="30" height="130" fill="#75563f"/>
  <circle cx="1000" cy="390" r="120" fill="#5b7f65"/>
  <rect x="980" y="470" width="34" height="120" fill="#75563f"/>
  <rect x="430" y="600" width="210" height="30" rx="10" fill="#e7d8b6"/>
  <rect x="460" y="630" width="18" height="88" fill="#75563f"/>
  <rect x="590" y="630" width="18" height="88" fill="#75563f"/>
  <circle cx="500" cy="590" r="24" fill="#fffdfa"/>
  <circle cx="570" cy="590" r="24" fill="#fffdfa"/>
  <text x="78" y="820" fill="#20372a" font-size="52" font-family="Palatino Linotype, Georgia, serif">Garden sunrise</text>
</svg>
