<svg xmlns="http://www.w3.org/2000/svg" viewBox="0 0 1600 1200" role="img" aria-labelledby="title desc">
  <title id="title">Martins Bungalow Retreat exterior illustration</title>
  <desc id="desc">An abstract landscape with a bungalow, stone path, trees, and warm sky.</desc>
  <defs>
    <linearGradient id="sky" x1="0" x2="0" y1="0" y2="1">
      <stop offset="0%" stop-color="#f7d9a0"/>
      <stop offset="55%" stop-color="#fdeed4"/>
      <stop offset="100%" stop-color="#f6f4ef"/>
    </linearGradient>
    <linearGradient id="hill" x1="0" x2="1" y1="0" y2="1">
      <stop offset="0%" stop-color="#5a7d64"/>
      <stop offset="100%" stop-color="#2d4a39"/>
    </linearGradient>
  </defs>
  <rect width="1600" height="1200" fill="url(#sky)"/>
  <circle cx="1250" cy="220" r="110" fill="#f6c66d" opacity="0.7"/>
  <path d="M0 560 C180 480 360 470 540 520 C780 590 1000 560 1180 470 C1340 390 1480 380 1600 420 L1600 1200 L0 1200 Z" fill="#c4d1b7"/>
  <path d="M0 660 C170 590 350 600 540 660 C760 730 1010 710 1220 620 C1370 555 1490 545 1600 580 L1600 1200 L0 1200 Z" fill="url(#hill)"/>
  <path d="M880 620 L1130 620 L1200 710 L810 710 Z" fill="#7d5a43"/>
  <rect x="850" y="710" width="310" height="205" rx="12" fill="#efe5d5"/>
  <rect x="890" y="770" width="80" height="80" fill="#345844" opacity="0.78"/>
  <rect x="1000" y="770" width="110" height="120" fill="#345844" opacity="0.78"/>
  <path d="M0 1200 L730 890 L910 930 L760 1200 Z" fill="#c99a3b" opacity="0.42"/>
  <path d="M0 1200 L710 930 L845 960 L765 1200 Z" fill="#e8d9b6"/>
  <circle cx="380" cy="660" r="130" fill="#345844"/>
  <circle cx="470" cy="570" r="110" fill="#4d6f57"/>
  <rect x="405" y="660" width="36" height="150" fill="#74553f"/>
  <circle cx="1310" cy="760" r="115" fill="#537861"/>
  <circle cx="1215" cy="705" r="95" fill="#6d8b73"/>
  <rect x="1260" y="760" width="30" height="120" fill="#74553f"/>
  <text x="120" y="1090" fill="#20372a" font-size="72" font-family="Palatino Linotype, Georgia, serif">Martins Bungalow Retreat</text>
  <text x="120" y="1155" fill="#345844" font-size="34" font-family="Trebuchet MS, Segoe UI, sans-serif">Slow stays near Guimaraes</text>
</svg>
